<svg id="Layer_1" data-name="Layer 1" xmlns="http://www.w3.org/2000/svg" version="1.1" viewBox="0 0 110 135">
  <defs>
    <style>
      .cls-1 {
        fill: #fff;
        stroke-width: 0px;
      }
    </style>
  </defs>
  <path class="cls-1" d="M35.1,60l-30.1,24.7v-49.4l30.1,24.7ZM98.5,24.6H11.5c-3.6,0-6.5,2.9-6.5,6.5v.5l45.1,37.1c2.9,2.3,7,2.3,9.9,0l45.1-37.1v-.5c0-3.6-2.9-6.5-6.5-6.5h0ZM105,84.7v-49.4l-30.1,24.7,30.1,24.7ZM61.7,70.9c-1.9,1.6-4.3,2.4-6.7,2.4s-4.8-.8-6.7-2.4l-10.9-9L5,88.4v.5c0,3.6,2.9,6.5,6.5,6.5h87c3.6,0,6.5-2.9,6.5-6.5v-.5l-32.3-26.5-10.9,9Z"/>
</svg>