<svg id="Layer_1" data-name="Layer 1" xmlns="http://www.w3.org/2000/svg" version="1.1" viewBox="0 0 110 135">
  <defs>
    <style>
      .cls-1 {
        fill: #fff;
        fill-rule: evenodd;
        stroke-width: 0px;
      }
    </style>
  </defs>
  <path class="cls-1" d="M54.4,32c2,3.5.8,8.1-2.7,10.1-1.1.6-2.7,1.2-2.8,2.7-.2,4.7,2.3,11,4.9,15.5,2.6,4.5,6.8,9.9,11,12,1.4.7,2.6-.4,3.8-1h0c3.5-2,8.1-.8,10.1,2.7l7.7,13.3c2,3.5.8,8-2.7,10.1l-11.6,6.7c-2,1.2-4.6.9-6.4-.6C46.1,86.4,27.4,54.1,22.3,28.5c-.5-2.3.6-4.7,2.6-5.8l11.6-6.7h0c3.5-2,8.1-.8,10.1,2.7l7.7,13.3h0ZM69.9,34h0c9,5.2,14.5,14.8,14.6,25.2,0,.9.8,1.6,1.7,1.6s1.7-.7,1.7-1.6c0-5.7-1.5-11.3-4.4-16.2-2.9-4.9-7-9-11.9-11.9-.8-.5-1.8-.2-2.3.6-.5.8-.2,1.8.6,2.3h0ZM66.3,40.2c6.8,3.9,11,11.2,11,19.1,0,.9.8,1.7,1.7,1.7s1.7-.8,1.7-1.7c0-9.1-4.8-17.5-12.7-22-.8-.4-1.8-.2-2.3.6-.5.8-.2,1.8.6,2.3h0ZM62.8,46.3c4.6,2.7,7.5,7.6,7.5,12.9,0,.9.8,1.6,1.7,1.6s1.7-.7,1.7-1.6c0-3.2-.8-6.4-2.5-9.2-1.6-2.8-3.9-5.1-6.7-6.7-.4-.2-.9-.3-1.3-.2-.4.1-.8.4-1,.8-.2.4-.3.9-.2,1.3.1.4.4.8.8,1h0Z"/>
</svg>